<?xml version="1.0" encoding="utf-8"?>
<?xml-stylesheet type="text/xsl" href="rss1.xsl"?>
<rss version="2.0" xmlns:atom="http://www.w3.org/2005/Atom" xmlns:content="http://purl.org/rss/1.0/modules/content/" xmlns:dc="http://purl.org/dc/elements/1.1/" xmlns:media="http://search.yahoo.com/mrss/">
<channel>
 <title>Getty</title>
 <link>http://www.gettyimg.com/</link>
 <atom:link href="http://www.gettyimg.com/" rel="self" type="application/rss+xml" />

 
                <item>
                <title><![CDATA[【HD Live Performances】FEED - Gwen Stefani - Misery (The Voice USA 2016-04-19) 3 Takes Pre-tape BACKHAUL FEED 1080i H264 31mbps DTSHDMA 5.1-ALANiS]]></title>
                <link><![CDATA[https://sharemania.us/threads/gwen-stefani-misery-the-voice-usa-2016-04-19-3-takes-pre-tape-backhaul-feed-1080i-h264-31mbps-dtshdma-5-1-alanis.230185/]]></link>
                <description><![CDATA[<article>
<blockquote class="messageText SelectQuoteContainer ugc baseHtml">
<div style="text-align: center"><img src="https://i.imgur.com/EKHsij6.png" class="bbCodeImage LbImage" alt="[​IMG]" data-url="https://i.imgur.com/EKHsij6.png" style=""> <br>
<br>
<img src="https://i.imgur.com/DyAKxZO.png" class="bbCodeImage LbImage" alt="[​IMG]" data-url="https://i.imgur.com/DyAKxZO.png" style=""> <br>
<br>
<img src="https://i.imgur.com/0KfLCz3.png" class="bbCodeImage LbImage" alt="[​IMG]" data-url="https://i.imgur.com/0KfLCz3.png" style=""> <br>
<br>
<div class="ToggleTriggerAnchor bbCodeSpoilerContainer">
<button type="button" class="button bbCodeSpoilerButton ToggleTrigger Tooltip JsOnly" data-target="> .SpoilerTarget"><span>Spoiler: <span class="SpoilerTitle">MediaInfo</span></span></button>
<div class="SpoilerTarget bbCodeSpoilerText">Video<br>
ID : 1<br>
Format : AVC<br>
Format/Info : Advanced Video Codec<br>
Format profile : High@L4.1<br>
Format settings : 3 Ref Frames<br>
Format settings, CABAC : No<br>
Format settings, Reference fra : 3 frames<br>
Codec ID : V_MPEG4/ISO/AVC<br>
Duration : 28 min 9 s<br>
Bit rate mode : Constant<br>
Bit rate : 31.3 Mb/s<br>
Width : 1 920 pixels<br>
Height : 1 080 pixels<br>
Display aspect ratio : 16:9<br>
Frame rate mode : Variable<br>
Frame rate : 59.940 (59940/1000) FPS<br>
Original frame rate : 29.970 (30000/1001) FPS<br>
Color space : YUV<br>
Chroma subsampling : 4:2:0<br>
Bit depth : 8 bits<br>
Scan type : Interlaced<br>
Scan type, store method : Separated fields<br>
Scan order : Top Field First<br>
Bits/(Pixel*Frame) : 0.252<br>
Stream size : 6.16 GiB (94%)<br>
Default : Yes<br>
Forced : No<br>
Color range : Limited<br>
Color primaries : BT.709<br>
Transfer characteristics : BT.709<br>
Matrix coefficients : BT.709<br>
<br>
Audio<br>
ID : 2<br>
Format : DTS XLL<br>
Format/Info : Digital Theater Systems<br>
Commercial name : DTS-HD Master Audio<br>
Codec ID : A_DTS<br>
Duration : 28 min 9 s<br>
Bit rate mode : Variable<br>
Bit rate : 1 957 kb/s<br>
Channel(s) : 6 channels<br>
Channel layout : C L R Ls Rs LFE<br>
Sampling rate : 48.0 kHz<br>
Frame rate : 93.750 FPS (512 SPF)<br>
Bit depth : 16 bits<br>
Compression mode : Lossless<br>
Stream size : 394 MiB (6%)<br>
Language : English<br>
Default : Yes<br>
Forced : No</div>
</div><br>
<div class="bbCodeBlock bbCodeVfcHH HiddenContent">
<div class="attribution type">Hidden Content:</div>
<blockquote>You must reply before you can see the hidden data contained here.</blockquote>
</div></div>
<div class="messageTextEndMarker">&nbsp;</div>
</blockquote>
</article>]]></description>
                <author><![CDATA[Carlos]]></author>
                </item>

                </channel></rss>